<svg width="409" height="256" viewBox="0 0 409 256" fill="none" xmlns="http://www.w3.org/2000/svg">
<path d="M7.68 153V49.32H30.592V91.688L48 49.32H70.4L51.2 96.168L71.296 153H48L33.024 107.176L30.592 111.272V153H7.68Z" fill="#EE2B48"/>
<path d="M92.587 154.28C88.8323 154.28 85.675 153.384 83.115 151.592C80.555 149.8 78.635 147.539 77.355 144.808C76.075 141.992 75.435 139.133 75.435 136.232C75.435 131.624 76.331 127.741 78.123 124.584C80.0003 121.427 82.4323 118.781 85.419 116.648C88.4057 114.515 91.691 112.723 95.275 111.272C98.859 109.736 102.4 108.371 105.899 107.176V99.752C105.899 98.472 105.771 97.3627 105.515 96.424C105.259 95.4 104.832 94.632 104.235 94.12C103.638 93.5227 102.742 93.224 101.547 93.224C100.352 93.224 99.4137 93.48 98.731 93.992C98.1337 94.504 97.707 95.2293 97.451 96.168C97.195 97.0213 97.0243 98.0027 96.939 99.112L96.427 104.488L76.971 103.72C77.3977 94.8453 79.7443 88.3173 84.011 84.136C88.363 79.8693 94.8483 77.736 103.467 77.736C110.976 77.736 116.566 79.8267 120.235 84.008C123.99 88.104 125.867 93.4373 125.867 100.008V134.568C125.867 137.64 125.91 140.328 125.995 142.632C126.166 144.936 126.336 146.941 126.507 148.648C126.763 150.355 126.976 151.805 127.147 153H108.459C108.203 151.037 107.904 148.904 107.563 146.6C107.222 144.296 106.966 142.931 106.795 142.504C105.942 145.576 104.32 148.307 101.931 150.696C99.627 153.085 96.5123 154.28 92.587 154.28ZM100.011 140.2C100.864 140.2 101.632 140.029 102.315 139.688C103.083 139.347 103.766 138.877 104.363 138.28C104.96 137.683 105.472 137.085 105.899 136.488V116.264C104.192 117.288 102.614 118.355 101.163 119.464C99.7123 120.488 98.475 121.64 97.451 122.92C96.427 124.2 95.6163 125.608 95.019 127.144C94.507 128.595 94.251 130.259 94.251 132.136C94.251 134.611 94.763 136.573 95.787 138.024C96.811 139.475 98.219 140.2 100.011 140.2ZM139.174 153V49.32H159.91V153H139.174ZM197.723 154.28C192.432 154.28 187.824 153.384 183.899 151.592C180.059 149.8 177.072 147.112 174.939 143.528C172.891 139.944 171.867 135.464 171.867 130.088V101.928C171.867 96.552 172.891 92.072 174.939 88.488C177.072 84.904 180.059 82.216 183.899 80.424C187.824 78.632 192.432 77.736 197.723 77.736C203.014 77.736 207.579 78.632 211.419 80.424C215.344 82.216 218.374 84.904 220.507 88.488C222.64 92.072 223.707 96.552 223.707 101.928V130.088C223.707 135.464 222.64 139.944 220.507 143.528C218.374 147.112 215.344 149.8 211.419 151.592C207.579 153.384 203.014 154.28 197.723 154.28ZM197.851 140.456C199.216 140.456 200.283 140.115 201.051 139.432C201.819 138.664 202.331 137.64 202.587 136.36C202.928 134.995 203.099 133.373 203.099 131.496V100.52C203.099 98.6427 202.928 97.064 202.587 95.784C202.331 94.4187 201.819 93.3947 201.051 92.712C200.283 91.944 199.216 91.56 197.851 91.56C196.486 91.56 195.419 91.944 194.651 92.712C193.883 93.3947 193.328 94.4187 192.987 95.784C192.646 97.064 192.475 98.6427 192.475 100.52V131.496C192.475 133.373 192.646 134.995 192.987 136.36C193.328 137.64 193.883 138.664 194.651 139.432C195.419 140.115 196.486 140.456 197.851 140.456ZM237.326 174.504V160.04C239.971 160.04 242.147 159.869 243.854 159.528C245.646 159.187 246.969 158.547 247.822 157.608C248.761 156.669 249.23 155.389 249.23 153.768C249.23 152.317 248.974 150.568 248.462 148.52C247.95 146.387 247.31 143.997 246.542 141.352L229.134 79.016H248.718L258.062 121.768L265.102 79.016H284.814L267.79 154.792C266.681 159.912 264.931 163.88 262.542 166.696C260.153 169.597 257.209 171.603 253.71 172.712C250.297 173.907 246.414 174.504 242.062 174.504H237.326ZM304.212 154.28C300.457 154.28 297.3 153.384 294.74 151.592C292.18 149.8 290.26 147.539 288.98 144.808C287.7 141.992 287.06 139.133 287.06 136.232C287.06 131.624 287.956 127.741 289.748 124.584C291.625 121.427 294.057 118.781 297.044 116.648C300.031 114.515 303.316 112.723 306.9 111.272C310.484 109.736 314.025 108.371 317.524 107.176V99.752C317.524 98.472 317.396 97.3627 317.14 96.424C316.884 95.4 316.457 94.632 315.86 94.12C315.263 93.5227 314.367 93.224 313.172 93.224C311.977 93.224 311.039 93.48 310.356 93.992C309.759 94.504 309.332 95.2293 309.076 96.168C308.82 97.0213 308.649 98.0027 308.564 99.112L308.052 104.488L288.596 103.72C289.023 94.8453 291.369 88.3173 295.636 84.136C299.988 79.8693 306.473 77.736 315.092 77.736C322.601 77.736 328.191 79.8267 331.86 84.008C335.615 88.104 337.492 93.4373 337.492 100.008V134.568C337.492 137.64 337.535 140.328 337.62 142.632C337.791 144.936 337.961 146.941 338.132 148.648C338.388 150.355 338.601 151.805 338.772 153H320.084C319.828 151.037 319.529 148.904 319.188 146.6C318.847 144.296 318.591 142.931 318.42 142.504C317.567 145.576 315.945 148.307 313.556 150.696C311.252 153.085 308.137 154.28 304.212 154.28ZM311.636 140.2C312.489 140.2 313.257 140.029 313.94 139.688C314.708 139.347 315.391 138.877 315.988 138.28C316.585 137.683 317.097 137.085 317.524 136.488V116.264C315.817 117.288 314.239 118.355 312.788 119.464C311.337 120.488 310.1 121.64 309.076 122.92C308.052 124.2 307.241 125.608 306.644 127.144C306.132 128.595 305.876 130.259 305.876 132.136C305.876 134.611 306.388 136.573 307.412 138.024C308.436 139.475 309.844 140.2 311.636 140.2ZM349.903 153V79.016H370.767V86.44C373.498 83.7093 376.314 81.576 379.215 80.04C382.202 78.504 385.316 77.736 388.559 77.736C391.631 77.736 394.148 78.504 396.111 80.04C398.159 81.4907 399.695 83.5387 400.719 86.184C401.743 88.744 402.255 91.688 402.255 95.016V153H381.519V97.96C381.519 96.168 381.22 94.8027 380.623 93.864C380.026 92.9253 378.916 92.456 377.295 92.456C376.442 92.456 375.418 92.712 374.223 93.224C373.114 93.6507 371.962 94.2907 370.767 95.144V153H349.903Z" fill="black"/>
<path d="M221.256 237.576C218.269 237.576 215.773 236.936 213.768 235.656C211.805 234.376 210.312 232.605 209.288 230.344C208.264 228.083 207.667 225.459 207.496 222.472L213.896 220.744C214.024 222.579 214.301 224.349 214.728 226.056C215.197 227.763 215.944 229.171 216.968 230.28C217.992 231.347 219.421 231.88 221.256 231.88C223.133 231.88 224.541 231.368 225.48 230.344C226.461 229.277 226.952 227.763 226.952 225.8C226.952 223.453 226.419 221.576 225.352 220.168C224.285 218.717 222.941 217.267 221.32 215.816L212.616 208.136C210.909 206.643 209.651 205.021 208.84 203.272C208.029 201.48 207.624 199.283 207.624 196.68C207.624 192.883 208.712 189.939 210.888 187.848C213.064 185.757 216.029 184.712 219.784 184.712C221.832 184.712 223.624 184.989 225.16 185.544C226.739 186.056 228.04 186.867 229.064 187.976C230.131 189.085 230.963 190.493 231.56 192.2C232.2 193.864 232.627 195.827 232.84 198.088L226.696 199.752C226.568 198.045 226.312 196.488 225.928 195.08C225.544 193.629 224.861 192.477 223.88 191.624C222.941 190.728 221.576 190.28 219.784 190.28C217.992 190.28 216.584 190.771 215.56 191.752C214.579 192.691 214.088 194.099 214.088 195.976C214.088 197.555 214.344 198.856 214.856 199.88C215.411 200.904 216.285 201.949 217.48 203.016L226.248 210.696C228.211 212.403 229.939 214.451 231.432 216.84C232.925 219.187 233.672 221.981 233.672 225.224C233.672 227.784 233.139 230.003 232.072 231.88C231.005 233.715 229.533 235.123 227.656 236.104C225.821 237.085 223.688 237.576 221.256 237.576Z" fill="#EE2B48"/>
<path d="M248.562 237.512C246.642 237.512 245.085 237.149 243.89 236.424C242.738 235.699 241.885 234.675 241.33 233.352C240.818 232.029 240.562 230.472 240.562 228.68V204.552H236.658V200.008H240.562V189.192H247.41V200.008H253.362V204.552H247.41V228.232C247.41 229.683 247.645 230.728 248.114 231.368C248.583 231.965 249.479 232.264 250.802 232.264C251.143 232.264 251.527 232.243 251.954 232.2C252.423 232.157 252.871 232.115 253.298 232.072V237.128C252.445 237.256 251.655 237.341 250.93 237.384C250.205 237.469 249.415 237.512 248.562 237.512ZM268.634 237.512C265.732 237.512 263.492 236.957 261.914 235.848C260.335 234.696 259.226 233.032 258.586 230.856C257.988 228.637 257.69 225.928 257.69 222.728V214.28C257.69 210.995 258.01 208.264 258.65 206.088C259.29 203.912 260.399 202.269 261.978 201.16C263.599 200.051 265.818 199.496 268.634 199.496C271.748 199.496 274.031 200.136 275.482 201.416C276.975 202.696 277.956 204.552 278.426 206.984C278.895 209.373 279.13 212.253 279.13 215.624V218.632H264.538V226.056C264.538 227.549 264.666 228.765 264.922 229.704C265.22 230.643 265.668 231.347 266.266 231.816C266.906 232.243 267.716 232.456 268.698 232.456C269.722 232.456 270.49 232.221 271.002 231.752C271.556 231.24 271.919 230.536 272.09 229.64C272.303 228.701 272.41 227.613 272.41 226.376V224.136H279.066V225.544C279.066 229.256 278.276 232.179 276.698 234.312C275.119 236.445 272.431 237.512 268.634 237.512ZM264.538 214.92H272.41V211.592C272.41 210.056 272.324 208.776 272.154 207.752C271.983 206.685 271.62 205.896 271.066 205.384C270.554 204.829 269.722 204.552 268.57 204.552C267.46 204.552 266.607 204.808 266.01 205.32C265.455 205.832 265.071 206.707 264.858 207.944C264.644 209.139 264.538 210.803 264.538 212.936V214.92ZM287.507 237V205.064H283.091V200.008H287.507V198.088C287.507 195.784 287.678 193.821 288.019 192.2C288.403 190.536 289.171 189.256 290.323 188.36C291.475 187.464 293.203 187.016 295.507 187.016C296.36 187.016 297.107 187.059 297.747 187.144C298.43 187.187 299.176 187.293 299.987 187.464V192.456C299.603 192.371 299.176 192.307 298.707 192.264C298.238 192.179 297.811 192.136 297.427 192.136C296.104 192.136 295.251 192.584 294.867 193.48C294.526 194.333 294.355 195.485 294.355 196.936V200.008H299.987V205.064H294.355V237H287.507ZM308.587 237.512C307.136 237.512 305.856 237.107 304.747 236.296C303.637 235.443 302.763 234.376 302.123 233.096C301.483 231.773 301.163 230.387 301.163 228.936C301.163 226.632 301.547 224.691 302.315 223.112C303.083 221.533 304.128 220.211 305.451 219.144C306.816 218.035 308.373 217.075 310.123 216.264C311.915 215.453 313.792 214.664 315.755 213.896V211.272C315.755 209.779 315.669 208.541 315.499 207.56C315.328 206.579 314.965 205.853 314.411 205.384C313.899 204.872 313.109 204.616 312.043 204.616C311.104 204.616 310.336 204.829 309.739 205.256C309.184 205.683 308.779 206.301 308.523 207.112C308.267 207.88 308.139 208.797 308.139 209.864V211.72L301.355 211.464C301.44 207.368 302.379 204.36 304.171 202.44C305.963 200.477 308.736 199.496 312.491 199.496C316.16 199.496 318.763 200.499 320.299 202.504C321.835 204.509 322.603 207.411 322.603 211.208V228.104C322.603 229.256 322.624 230.365 322.667 231.432C322.752 232.499 322.837 233.501 322.923 234.44C323.051 235.336 323.157 236.189 323.243 237H316.971C316.843 236.317 316.672 235.464 316.458 234.44C316.288 233.373 316.16 232.413 316.075 231.56C315.648 233.011 314.816 234.376 313.579 235.656C312.384 236.893 310.72 237.512 308.587 237.512ZM311.275 231.624C311.957 231.624 312.597 231.432 313.195 231.048C313.792 230.664 314.325 230.237 314.795 229.768C315.264 229.256 315.584 228.851 315.755 228.552V218.056C314.688 218.653 313.685 219.251 312.747 219.848C311.808 220.445 310.976 221.085 310.251 221.768C309.568 222.408 309.013 223.155 308.587 224.008C308.203 224.819 308.01 225.757 308.01 226.824C308.01 228.317 308.288 229.491 308.843 230.344C309.397 231.197 310.208 231.624 311.275 231.624ZM329.206 237V200.008H336.054V203.656C337.291 202.504 338.657 201.523 340.15 200.712C341.643 199.901 343.286 199.496 345.078 199.496C346.571 199.496 347.702 199.88 348.47 200.648C349.281 201.416 349.835 202.376 350.134 203.528C350.475 204.68 350.646 205.853 350.646 207.048V237H343.798V209.032C343.798 207.709 343.606 206.685 343.222 205.96C342.838 205.235 342.049 204.872 340.854 204.872C340.086 204.872 339.275 205.107 338.422 205.576C337.611 206.003 336.822 206.536 336.054 207.176V237H329.206ZM367.507 237.512C364.776 237.512 362.622 236.957 361.043 235.848C359.464 234.739 358.334 233.16 357.651 231.112C357.011 229.064 356.691 226.653 356.691 223.88V213.128C356.691 210.355 357.011 207.944 357.651 205.896C358.334 203.848 359.464 202.269 361.043 201.16C362.622 200.051 364.776 199.496 367.507 199.496C370.238 199.496 372.371 200.051 373.907 201.16C375.486 202.269 376.595 203.848 377.235 205.896C377.918 207.944 378.259 210.355 378.259 213.128V223.88C378.259 226.653 377.918 229.064 377.235 231.112C376.595 233.16 375.486 234.739 373.907 235.848C372.371 236.957 370.238 237.512 367.507 237.512ZM367.507 232.456C368.83 232.456 369.747 232.072 370.259 231.304C370.814 230.536 371.134 229.533 371.219 228.296C371.347 227.016 371.411 225.693 371.411 224.328V212.744C371.411 211.336 371.347 210.013 371.219 208.776C371.134 207.539 370.814 206.536 370.259 205.768C369.747 204.957 368.83 204.552 367.507 204.552C366.184 204.552 365.246 204.957 364.691 205.768C364.136 206.536 363.795 207.539 363.667 208.776C363.582 210.013 363.539 211.336 363.539 212.744V224.328C363.539 225.693 363.582 227.016 363.667 228.296C363.795 229.533 364.136 230.536 364.691 231.304C365.246 232.072 366.184 232.456 367.507 232.456ZM389.319 237L382.023 200.008H388.935L393.479 229.768L398.087 200.008H404.743L397.703 237H389.319Z" fill="black"/>
</svg>
